 <svg
            width="32"
            height="32"
            viewBox="0 0 32 32"
            fill="none"
            xmlns="http://www.w3.org/2000/svg"
          >
            <path
              fill-rule="evenodd"
              clip-rule="evenodd"
              d="M22 7H23C23.7957 7 24.5587 7.31607 25.1213 7.87868C25.6839 8.44129 26 9.20435 26 10V18.2284C26.8339 19.2589 27.3333 20.5711 27.3333 22C27.3333 25.3137 24.647 28 21.3333 28C20.1066 28 18.9658 27.6318 18.0155 27H9C8.20435 27 7.44129 26.6839 6.87868 26.1213C6.31607 25.5587 6 24.7957 6 24V10C6 9.20435 6.31607 8.44129 6.87868 7.87868C7.44129 7.31607 8.20435 7 9 7H10V6C10 5.73478 10.1054 5.48043 10.2929 5.29289C10.4804 5.10536 10.7348 5 11 5C11.2652 5 11.5196 5.10536 11.7071 5.29289C11.8946 5.48043 12 5.73478 12 6V7H20V6C20 5.73478 20.1054 5.48043 20.2929 5.29289C20.4804 5.10536 20.7348 5 21 5C21.2652 5 21.5196 5.10536 21.7071 5.29289C21.8946 5.48043 22 5.73478 22 6V7ZM24 15V16.6237C23.1967 16.2245 22.2912 16 21.3333 16C18.0196 16 15.3333 18.6863 15.3333 22C15.3333 23.0929 15.6255 24.1175 16.136 25H9C8.73478 25 8.48043 24.8946 8.29289 24.7071C8.10536 24.5196 8 24.2652 8 24V15H24ZM8 13H24V10C24 9.73478 23.8946 9.48043 23.7071 9.29289C23.5196 9.10536 23.2652 9 23 9H22V10C22 10.2652 21.8946 10.5196 21.7071 10.7071C21.5196 10.8946 21.2652 11 21 11C20.7348 11 20.4804 10.8946 20.2929 10.7071C20.1054 10.5196 20 10.2652 20 10V9H12V10C12 10.2652 11.8946 10.5196 11.7071 10.7071C11.5196 10.8946 11.2652 11 11 11C10.7348 11 10.4804 10.8946 10.2929 10.7071C10.1054 10.5196 10 10.2652 10 10V9H9C8.73478 9 8.48043 9.10536 8.29289 9.29289C8.10536 9.48043 8 9.73478 8 10V13ZM21.3333 26C23.5425 26 25.3333 24.2091 25.3333 22C25.3333 19.7909 23.5425 18 21.3333 18C19.1242 18 17.3333 19.7909 17.3333 22C17.3333 24.2091 19.1242 26 21.3333 26ZM20.46 19.6243C20.46 19.186 20.8153 18.8307 21.2536 18.8307C21.6919 18.8307 22.0472 19.186 22.0472 19.6243V21.9628L23.2754 23.2507C23.5806 23.5707 23.5686 24.0776 23.2485 24.3828C22.9285 24.688 22.4217 24.6759 22.1165 24.3559L20.7271 22.899C20.6464 22.8143 20.5879 22.7166 20.5513 22.6131C20.493 22.5026 20.46 22.3766 20.46 22.243V19.6243Z"
              fill="#F5F5F5"
            />
          </svg>
