<svg
            width="32"
            height="32"
            viewBox="0 0 32 32"
            fill="none"
            xmlns="http://www.w3.org/2000/svg"
          >
            <path
              d="M16.25 23C16.4478 23 16.6411 22.9414 16.8056 22.8315C16.97 22.7216 17.0982 22.5654 17.1739 22.3827C17.2496 22.2 17.2694 21.9989 17.2308 21.8049C17.1922 21.6109 17.097 21.4327 16.9571 21.2929C16.8173 21.153 16.6391 21.0578 16.4451 21.0192C16.2511 20.9806 16.05 21.0004 15.8673 21.0761C15.6846 21.1518 15.5284 21.28 15.4185 21.4444C15.3086 21.6089 15.25 21.8022 15.25 22C15.25 22.2652 15.3554 22.5196 15.5429 22.7071C15.7304 22.8946 15.9848 23 16.25 23ZM21.25 23C21.4478 23 21.6411 22.9414 21.8056 22.8315C21.97 22.7216 22.0982 22.5654 22.1739 22.3827C22.2496 22.2 22.2694 21.9989 22.2308 21.8049C22.1922 21.6109 22.097 21.4327 21.9571 21.2929C21.8173 21.153 21.6391 21.0578 21.4451 21.0192C21.2511 20.9806 21.05 21.0004 20.8673 21.0761C20.6846 21.1518 20.5284 21.28 20.4185 21.4444C20.3086 21.6089 20.25 21.8022 20.25 22C20.25 22.2652 20.3554 22.5196 20.5429 22.7071C20.7304 22.8946 20.9848 23 21.25 23ZM21.25 19C21.4478 19 21.6411 18.9414 21.8056 18.8315C21.97 18.7216 22.0982 18.5654 22.1739 18.3827C22.2496 18.2 22.2694 17.9989 22.2308 17.8049C22.1922 17.6109 22.097 17.4327 21.9571 17.2929C21.8173 17.153 21.6391 17.0578 21.4451 17.0192C21.2511 16.9806 21.05 17.0004 20.8673 17.0761C20.6846 17.1518 20.5284 17.28 20.4185 17.4444C20.3086 17.6089 20.25 17.8022 20.25 18C20.25 18.2652 20.3554 18.5196 20.5429 18.7071C20.7304 18.8946 20.9848 19 21.25 19ZM16.25 19C16.4478 19 16.6411 18.9414 16.8056 18.8315C16.97 18.7216 17.0982 18.5654 17.1739 18.3827C17.2496 18.2 17.2694 17.9989 17.2308 17.8049C17.1922 17.6109 17.097 17.4327 16.9571 17.2929C16.8173 17.153 16.6391 17.0578 16.4451 17.0192C16.2511 16.9806 16.05 17.0004 15.8673 17.0761C15.6846 17.1518 15.5284 17.28 15.4185 17.4444C15.3086 17.6089 15.25 17.8022 15.25 18C15.25 18.2652 15.3554 18.5196 15.5429 18.7071C15.7304 18.8946 15.9848 19 16.25 19ZM23.25 7H22.25V6C22.25 5.73478 22.1446 5.48043 21.9571 5.29289C21.7696 5.10536 21.5152 5 21.25 5C20.9848 5 20.7304 5.10536 20.5429 5.29289C20.3554 5.48043 20.25 5.73478 20.25 6V7H12.25V6C12.25 5.73478 12.1446 5.48043 11.9571 5.29289C11.7696 5.10536 11.5152 5 11.25 5C10.9848 5 10.7304 5.10536 10.5429 5.29289C10.3554 5.48043 10.25 5.73478 10.25 6V7H9.25C8.45435 7 7.69129 7.31607 7.12868 7.87868C6.56607 8.44129 6.25 9.20435 6.25 10V24C6.25 24.7956 6.56607 25.5587 7.12868 26.1213C7.69129 26.6839 8.45435 27 9.25 27H23.25C24.0456 27 24.8087 26.6839 25.3713 26.1213C25.9339 25.5587 26.25 24.7956 26.25 24V10C26.25 9.20435 25.9339 8.44129 25.3713 7.87868C24.8087 7.31607 24.0456 7 23.25 7ZM24.25 24C24.25 24.2652 24.1446 24.5196 23.9571 24.7071C23.7696 24.8946 23.5152 25 23.25 25H9.25C8.98478 25 8.73043 24.8946 8.54289 24.7071C8.35536 24.5196 8.25 24.2652 8.25 24V15H24.25V24ZM24.25 13H8.25V10C8.25 9.73478 8.35536 9.48043 8.54289 9.29289C8.73043 9.10536 8.98478 9 9.25 9H10.25V10C10.25 10.2652 10.3554 10.5196 10.5429 10.7071C10.7304 10.8946 10.9848 11 11.25 11C11.5152 11 11.7696 10.8946 11.9571 10.7071C12.1446 10.5196 12.25 10.2652 12.25 10V9H20.25V10C20.25 10.2652 20.3554 10.5196 20.5429 10.7071C20.7304 10.8946 20.9848 11 21.25 11C21.5152 11 21.7696 10.8946 21.9571 10.7071C22.1446 10.5196 22.25 10.2652 22.25 10V9H23.25C23.5152 9 23.7696 9.10536 23.9571 9.29289C24.1446 9.48043 24.25 9.73478 24.25 10V13ZM11.25 19C11.4478 19 11.6411 18.9414 11.8056 18.8315C11.97 18.7216 12.0982 18.5654 12.1739 18.3827C12.2496 18.2 12.2694 17.9989 12.2308 17.8049C12.1922 17.6109 12.097 17.4327 11.9571 17.2929C11.8173 17.153 11.6391 17.0578 11.4451 17.0192C11.2511 16.9806 11.05 17.0004 10.8673 17.0761C10.6846 17.1518 10.5284 17.28 10.4185 17.4444C10.3086 17.6089 10.25 17.8022 10.25 18C10.25 18.2652 10.3554 18.5196 10.5429 18.7071C10.7304 18.8946 10.9848 19 11.25 19ZM11.25 23C11.4478 23 11.6411 22.9414 11.8056 22.8315C11.97 22.7216 12.0982 22.5654 12.1739 22.3827C12.2496 22.2 12.2694 21.9989 12.2308 21.8049C12.1922 21.6109 12.097 21.4327 11.9571 21.2929C11.8173 21.153 11.6391 21.0578 11.4451 21.0192C11.2511 20.9806 11.05 21.0004 10.8673 21.0761C10.6846 21.1518 10.5284 21.28 10.4185 21.4444C10.3086 21.6089 10.25 21.8022 10.25 22C10.25 22.2652 10.3554 22.5196 10.5429 22.7071C10.7304 22.8946 10.9848 23 11.25 23Z"
              fill="#F5F5F5"
            />
          </svg>
