 <svg
            width="32"
            height="32"
            viewBox="0 0 32 32"
            fill="none"
            xmlns="http://www.w3.org/2000/svg"
          >
            <path
              d="M14.46 18.75C14.553 18.8437 14.6636 18.9181 14.7854 18.9689C14.9073 19.0197 15.038 19.0458 15.17 19.0458C15.302 19.0458 15.4327 19.0197 15.5546 18.9689C15.6764 18.9181 15.787 18.8437 15.88 18.75L19.96 14.67C20.1483 14.4817 20.2541 14.2263 20.2541 13.96C20.2541 13.6937 20.1483 13.4383 19.96 13.25C19.7717 13.0617 19.5163 12.9559 19.25 12.9559C18.9837 12.9559 18.7283 13.0617 18.54 13.25L15.17 16.63L13.96 15.41C13.7717 15.2217 13.5163 15.1159 13.25 15.1159C12.9837 15.1159 12.7283 15.2217 12.54 15.41C12.3517 15.5983 12.2459 15.8537 12.2459 16.12C12.2459 16.3863 12.3517 16.6417 12.54 16.83L14.46 18.75ZM25.25 6H7.25C6.98478 6 6.73043 6.10536 6.54289 6.29289C6.35536 6.48043 6.25 6.73478 6.25 7V25C6.25 25.2652 6.35536 25.5196 6.54289 25.7071C6.73043 25.8946 6.98478 26 7.25 26H25.25C25.5152 26 25.7696 25.8946 25.9571 25.7071C26.1446 25.5196 26.25 25.2652 26.25 25V7C26.25 6.73478 26.1446 6.48043 25.9571 6.29289C25.7696 6.10536 25.5152 6 25.25 6ZM24.25 24H8.25V8H24.25V24Z"
              fill="#F5F5F5"
            />
          </svg>
