 <svg
            width="32"
            height="32"
            viewBox="0 0 32 32"
            fill="none"
            xmlns="http://www.w3.org/2000/svg"
          >
            <path
              d="M21.8302 16.42L15.6502 22.61C14.84 23.33 13.7853 23.7132 12.7019 23.6814C11.6185 23.6495 10.5882 23.2048 9.82173 22.4384C9.05531 21.672 8.61067 20.6417 8.57878 19.5582C8.54688 18.4748 8.93014 17.4202 9.65016 16.61L17.6502 8.60997C18.1278 8.15627 18.7614 7.9033 19.4202 7.9033C20.0789 7.9033 20.7125 8.15627 21.1902 8.60997C21.6555 9.08156 21.9164 9.71744 21.9164 10.38C21.9164 11.0425 21.6555 11.6784 21.1902 12.15L14.2902 19.04C14.2219 19.1135 14.1398 19.1729 14.0485 19.2147C13.9573 19.2565 13.8587 19.2799 13.7584 19.2836C13.6582 19.2874 13.5581 19.2713 13.464 19.2363C13.37 19.2014 13.2837 19.1483 13.2102 19.08C13.1366 19.0117 13.0773 18.9296 13.0354 18.8383C12.9936 18.7471 12.9702 18.6485 12.9665 18.5483C12.9628 18.448 12.9788 18.3479 13.0138 18.2539C13.0487 18.1598 13.1019 18.0735 13.1702 18L18.3002 12.88C18.4885 12.6917 18.5943 12.4363 18.5943 12.17C18.5943 11.9037 18.4885 11.6483 18.3002 11.46C18.1119 11.2717 17.8565 11.1659 17.5902 11.1659C17.3239 11.1659 17.0685 11.2717 16.8802 11.46L11.7502 16.6C11.4935 16.8547 11.2897 17.1577 11.1507 17.4915C11.0117 17.8253 10.9401 18.1834 10.9401 18.545C10.9401 18.9066 11.0117 19.2646 11.1507 19.5984C11.2897 19.9323 11.4935 20.2353 11.7502 20.49C12.2745 20.9895 12.971 21.2681 13.6952 21.2681C14.4194 21.2681 15.1158 20.9895 15.6402 20.49L22.5302 13.59C23.325 12.7369 23.7578 11.6086 23.7372 10.4428C23.7166 9.27703 23.2444 8.16472 22.4199 7.34024C21.5954 6.51576 20.4831 6.04349 19.3173 6.02292C18.1515 6.00235 17.0232 6.43509 16.1702 7.22997L8.17016 15.23C7.09136 16.4248 6.51519 17.9898 6.56169 19.5989C6.6082 21.2081 7.27379 22.7372 8.4198 23.8677C9.5658 24.9983 11.1038 25.643 12.7134 25.6677C14.3231 25.6923 15.8801 25.0949 17.0602 24L23.2502 17.82C23.3434 17.7267 23.4174 17.616 23.4678 17.4942C23.5183 17.3724 23.5443 17.2418 23.5443 17.11C23.5443 16.9781 23.5183 16.8475 23.4678 16.7257C23.4174 16.6039 23.3434 16.4932 23.2502 16.4C23.1569 16.3067 23.0462 16.2328 22.9244 16.1823C22.8026 16.1318 22.672 16.1059 22.5402 16.1059C22.4083 16.1059 22.2777 16.1318 22.1559 16.1823C22.0341 16.2328 21.9234 16.3067 21.8302 16.4V16.42Z"
              fill="#F5F5F5"
            />
          </svg>
