 <svg
            width="32"
            height="32"
            viewBox="0 0 32 32"
            fill="none"
            xmlns="http://www.w3.org/2000/svg"
          >
            <path
              d="M25.25 6C24.9848 6 24.7304 6.10536 24.5429 6.29289C24.3554 6.48043 24.25 6.73478 24.25 7V9H22.25V7C22.25 6.73478 22.1446 6.48043 21.9571 6.29289C21.7696 6.10536 21.5152 6 21.25 6C20.9848 6 20.7304 6.10536 20.5429 6.29289C20.3554 6.48043 20.25 6.73478 20.25 7V8H12.25V7C12.25 6.73478 12.1446 6.48043 11.9571 6.29289C11.7696 6.10536 11.5152 6 11.25 6C10.9848 6 10.7304 6.10536 10.5429 6.29289C10.3554 6.48043 10.25 6.73478 10.25 7V9H8.25V7C8.25 6.73478 8.14464 6.48043 7.95711 6.29289C7.76957 6.10536 7.51522 6 7.25 6C6.98478 6 6.73043 6.10536 6.54289 6.29289C6.35536 6.48043 6.25 6.73478 6.25 7V25C6.25 25.2652 6.35536 25.5196 6.54289 25.7071C6.73043 25.8946 6.98478 26 7.25 26C7.51522 26 7.76957 25.8946 7.95711 25.7071C8.14464 25.5196 8.25 25.2652 8.25 25V23H10.25V25C10.25 25.2652 10.3554 25.5196 10.5429 25.7071C10.7304 25.8946 10.9848 26 11.25 26C11.5152 26 11.7696 25.8946 11.9571 25.7071C12.1446 25.5196 12.25 25.2652 12.25 25V24H20.25V25C20.25 25.2652 20.3554 25.5196 20.5429 25.7071C20.7304 25.8946 20.9848 26 21.25 26C21.5152 26 21.7696 25.8946 21.9571 25.7071C22.1446 25.5196 22.25 25.2652 22.25 25V23H24.25V25C24.25 25.2652 24.3554 25.5196 24.5429 25.7071C24.7304 25.8946 24.9848 26 25.25 26C25.5152 26 25.7696 25.8946 25.9571 25.7071C26.1446 25.5196 26.25 25.2652 26.25 25V7C26.25 6.73478 26.1446 6.48043 25.9571 6.29289C25.7696 6.10536 25.5152 6 25.25 6ZM10.25 21H8.25V19H10.25V21ZM10.25 17H8.25V15H10.25V17ZM10.25 13H8.25V11H10.25V13ZM20.25 22H12.25V17H20.25V22ZM20.25 15H12.25V10H20.25V15ZM24.25 21H22.25V19H24.25V21ZM24.25 17H22.25V15H24.25V17ZM24.25 13H22.25V11H24.25V13Z"
              fill="#F5F5F5"
            />
          </svg>
