<svg
            width="32"
            height="32"
            viewBox="0 0 32 32"
            fill="none"
            xmlns="http://www.w3.org/2000/svg"
          >
            <path
              d="M7.19154 19.2145C6.52777 19.2119 5.95662 19.0486 5.47809 18.7244C5.00213 18.4002 4.63551 17.9307 4.37823 17.3158C4.12353 16.7009 3.99747 15.9613 4.00004 15.0968C4.00004 14.2349 4.12739 13.5004 4.38209 12.8933C4.63937 12.2861 5.00599 11.8243 5.48194 11.5078C5.96048 11.1888 6.53034 11.0293 7.19154 11.0293C7.85274 11.0293 8.42131 11.1888 8.89727 11.5078C9.37581 11.8269 9.74371 12.2899 10.001 12.8971C10.2583 13.5017 10.3856 14.2349 10.383 15.0968C10.383 15.9638 10.2544 16.7048 9.99713 17.3197C9.74242 17.9346 9.37709 18.4041 8.90113 18.7283C8.42517 19.0524 7.85531 19.2145 7.19154 19.2145ZM7.19154 17.8291C7.64434 17.8291 8.00582 17.6014 8.27595 17.146C8.54609 16.6906 8.67988 16.0076 8.6773 15.0968C8.6773 14.4974 8.61556 13.9983 8.49206 13.5995C8.37115 13.2007 8.19877 12.901 7.97494 12.7003C7.75368 12.4996 7.49255 12.3993 7.19154 12.3993C6.74131 12.3993 6.38112 12.6244 6.11098 13.0746C5.84084 13.5249 5.70449 14.1989 5.70191 15.0968C5.70191 15.704 5.76237 16.2108 5.88329 16.6173C6.00679 17.0212 6.18045 17.3248 6.40428 17.5281C6.62811 17.7287 6.89053 17.8291 7.19154 17.8291Z"
              fill="#F5F5F5"
            />
            <path
              d="M13.0584 17.9603L13.0159 18.3848C12.9825 18.7244 12.9182 19.0627 12.823 19.3997C12.7304 19.7394 12.6326 20.0468 12.5297 20.3221C12.4293 20.5974 12.3483 20.8135 12.2866 20.9704H11.2214C11.26 20.8186 11.3128 20.6064 11.3797 20.3337C11.4465 20.0635 11.5096 19.7599 11.5688 19.4229C11.6279 19.0859 11.6652 18.7424 11.6807 18.3925L11.7 17.9603H13.0584Z"
              fill="#F5F5F5"
            />
            <path
              d="M17.3266 19.2145C16.6628 19.2119 16.0917 19.0486 15.6131 18.7244C15.1372 18.4002 14.7705 17.9307 14.5133 17.3158C14.2586 16.7009 14.1325 15.9613 14.1351 15.0968C14.1351 14.2349 14.2624 13.5004 14.5171 12.8933C14.7744 12.2861 15.141 11.8243 15.617 11.5078C16.0955 11.1888 16.6654 11.0293 17.3266 11.0293C17.9878 11.0293 18.5564 11.1888 19.0323 11.5078C19.5108 11.8269 19.8787 12.2899 20.136 12.8971C20.3933 13.5017 20.5206 14.2349 20.5181 15.0968C20.5181 15.9638 20.3894 16.7048 20.1322 17.3197C19.8775 17.9346 19.5121 18.4041 19.0362 18.7283C18.5602 19.0524 17.9903 19.2145 17.3266 19.2145ZM17.3266 17.8291C17.7794 17.8291 18.1409 17.6014 18.411 17.146C18.6811 16.6906 18.8149 16.0076 18.8123 15.0968C18.8123 14.4974 18.7506 13.9983 18.6271 13.5995C18.5062 13.2007 18.3338 12.901 18.11 12.7003C17.8887 12.4996 17.6276 12.3993 17.3266 12.3993C16.8763 12.3993 16.5162 12.6244 16.246 13.0746C15.9759 13.5249 15.8395 14.1989 15.837 15.0968C15.837 15.704 15.8974 16.2108 16.0183 16.6173C16.1418 17.0212 16.3155 17.3248 16.5393 17.5281C16.7631 17.7287 17.0256 17.8291 17.3266 17.8291Z"
              fill="#F5F5F5"
            />
            <path
              d="M24.8085 19.2145C24.1447 19.2119 23.5735 19.0486 23.095 18.7244C22.619 18.4002 22.2524 17.9307 21.9952 17.3158C21.7405 16.7009 21.6144 15.9613 21.617 15.0968C21.617 14.2349 21.7443 13.5004 21.999 12.8933C22.2563 12.2861 22.6229 11.8243 23.0989 11.5078C23.5774 11.1888 24.1473 11.0293 24.8085 11.0293C25.4697 11.0293 26.0382 11.1888 26.5142 11.5078C26.9927 11.8269 27.3606 12.2899 27.6179 12.8971C27.8752 13.5017 28.0025 14.2349 28 15.0968C28 15.9638 27.8713 16.7048 27.614 17.3197C27.3593 17.9346 26.994 18.4041 26.5181 18.7283C26.0421 19.0524 25.4722 19.2145 24.8085 19.2145ZM24.8085 17.8291C25.2613 17.8291 25.6227 17.6014 25.8929 17.146C26.163 16.6906 26.2968 16.0076 26.2942 15.0968C26.2942 14.4974 26.2325 13.9983 26.109 13.5995C25.9881 13.2007 25.8157 12.901 25.5919 12.7003C25.3706 12.4996 25.1095 12.3993 24.8085 12.3993C24.3582 12.3993 23.998 12.6244 23.7279 13.0746C23.4578 13.5249 23.3214 14.1989 23.3188 15.0968C23.3188 15.704 23.3793 16.2108 23.5002 16.6173C23.6237 17.0212 23.7974 17.3248 24.0212 17.5281C24.245 17.7287 24.5075 17.8291 24.8085 17.8291Z"
              fill="#F5F5F5"
            />
          </svg>
