 <svg
            width="32"
            height="32"
            viewBox="0 0 32 32"
            fill="none"
            xmlns="http://www.w3.org/2000/svg"
          >
            <path
              d="M22.75 8H8.75C7.95435 8 7.19129 8.31607 6.62868 8.87868C6.06607 9.44129 5.75 10.2044 5.75 11V21C5.75 21.7956 6.06607 22.5587 6.62868 23.1213C7.19129 23.6839 7.95435 24 8.75 24H22.75C23.5456 24 24.3087 23.6839 24.8713 23.1213C25.4339 22.5587 25.75 21.7956 25.75 21V11C25.75 10.2044 25.4339 9.44129 24.8713 8.87868C24.3087 8.31607 23.5456 8 22.75 8ZM8.75 22C8.48478 22 8.23043 21.8946 8.04289 21.7071C7.85536 21.5196 7.75 21.2652 7.75 21V18.58L11.05 15.29C11.2369 15.1068 11.4882 15.0041 11.75 15.0041C12.0118 15.0041 12.2631 15.1068 12.45 15.29L19.16 22H8.75ZM23.75 21C23.75 21.2652 23.6446 21.5196 23.4571 21.7071C23.2696 21.8946 23.0152 22 22.75 22H21.98L18.17 18.17L19.05 17.29C19.2369 17.1068 19.4882 17.0041 19.75 17.0041C20.0118 17.0041 20.2631 17.1068 20.45 17.29L23.75 20.58V21ZM23.75 17.76L21.87 15.89C21.3001 15.3424 20.5404 15.0366 19.75 15.0366C18.9596 15.0366 18.1999 15.3424 17.63 15.89L16.75 16.77L13.87 13.89C13.3001 13.3424 12.5404 13.0366 11.75 13.0366C10.9596 13.0366 10.1999 13.3424 9.63 13.89L7.75 15.76V11C7.75 10.7348 7.85536 10.4804 8.04289 10.2929C8.23043 10.1054 8.48478 10 8.75 10H22.75C23.0152 10 23.2696 10.1054 23.4571 10.2929C23.6446 10.4804 23.75 10.7348 23.75 11V17.76Z"
              fill="#F5F5F5"
            />
          </svg>
