<svg
            width="32"
            height="32"
            viewBox="0 0 32 32"
            fill="none"
            xmlns="http://www.w3.org/2000/svg"
          >
            <path
              d="M21.7499 8.47991C20.1586 6.88861 18.0004 5.99463 15.7499 5.99463C13.4995 5.99463 11.3412 6.88861 9.74993 8.47991C8.15863 10.0712 7.26465 12.2295 7.26465 14.4799C7.26465 16.7303 8.15863 18.8886 9.74993 20.4799L15.0199 25.7599C15.1129 25.8536 15.2235 25.928 15.3454 25.9788C15.4672 26.0296 15.5979 26.0557 15.7299 26.0557C15.8619 26.0557 15.9926 26.0296 16.1145 25.9788C16.2364 25.928 16.347 25.8536 16.4399 25.7599L21.7499 20.4299C23.3346 18.8452 24.2248 16.696 24.2248 14.4549C24.2248 12.2139 23.3346 10.0646 21.7499 8.47991ZM20.3199 18.9999L15.7499 23.5899L11.1799 18.9999C10.2771 18.0962 9.66241 16.9452 9.41362 15.6922C9.16484 14.4392 9.29312 13.1407 9.78223 11.9606C10.2713 10.7805 11.0993 9.77196 12.1616 9.06239C13.2238 8.35281 14.4725 7.97409 15.7499 7.97409C17.0273 7.97409 18.2761 8.35281 19.3383 9.06239C20.4005 9.77196 21.2285 10.7805 21.7176 11.9606C22.2067 13.1407 22.335 14.4392 22.0862 15.6922C21.8375 16.9452 21.2228 18.0962 20.3199 18.9999ZM12.7499 11.4099C11.9426 12.2197 11.4893 13.3165 11.4893 14.4599C11.4893 15.6033 11.9426 16.7001 12.7499 17.5099C13.3497 18.1107 14.1135 18.521 14.9456 18.6893C15.7776 18.8576 16.6409 18.7765 17.427 18.4561C18.2131 18.1356 18.8871 17.5902 19.3644 16.8882C19.8417 16.1861 20.1011 15.3588 20.1099 14.5099C20.1144 13.9431 20.0053 13.3812 19.7888 12.8573C19.5724 12.3334 19.2532 11.8583 18.8499 11.4599C18.4536 11.0545 17.981 10.7314 17.4594 10.5094C16.9377 10.2873 16.3773 10.1706 15.8103 10.1659C15.2434 10.1613 14.6811 10.2688 14.1559 10.4823C13.6307 10.6958 13.1529 11.011 12.7499 11.4099ZM17.4399 16.0899C17.061 16.4747 16.5601 16.7158 16.0231 16.7722C15.486 16.8285 14.946 16.6966 14.4954 16.3988C14.0449 16.1011 13.7117 15.6562 13.5529 15.14C13.3941 14.6238 13.4196 14.0685 13.6249 13.5691C13.8302 13.0696 14.2026 12.6569 14.6785 12.4016C15.1544 12.1464 15.7042 12.0643 16.2339 12.1695C16.7635 12.2747 17.2402 12.5607 17.5824 12.9784C17.9246 13.3962 18.1111 13.9199 18.1099 14.4599C18.0954 15.0772 17.8364 15.6634 17.3899 16.0899H17.4399Z"
              fill="#F5F5F5"
            />
          </svg>
