 <svg
            width="32"
            height="32"
            viewBox="0 0 32 32"
            fill="none"
            xmlns="http://www.w3.org/2000/svg"
          >
            <path
              d="M25 19H7C6.4 19 6 19.4 6 20C6 20.6 6.4 21 7 21H25C25.6 21 26 20.6 26 20C26 19.4 25.6 19 25 19ZM19 23H7C6.4 23 6 23.4 6 24C6 24.6 6.4 25 7 25H19C19.6 25 20 24.6 20 24C20 23.4 19.6 23 19 23ZM7 9H25C25.6 9 26 8.6 26 8C26 7.4 25.6 7 25 7H7C6.4 7 6 7.4 6 8C6 8.6 6.4 9 7 9ZM25 11H7C6.4 11 6 11.4 6 12C6 12.6 6.4 13 7 13H25C25.6 13 26 12.6 26 12C26 11.4 25.6 11 25 11ZM25 15H7C6.4 15 6 15.4 6 16C6 16.6 6.4 17 7 17H25C25.6 17 26 16.6 26 16C26 15.4 25.6 15 25 15Z"
              fill="#F5F5F5"
            />
          </svg>
