 <svg
            width="32"
            height="32"
            viewBox="0 0 32 32"
            fill="none"
            xmlns="http://www.w3.org/2000/svg"
          >
            <path
              d="M25.1814 14.6498C26.033 14.9351 26.7142 15.4488 27.2251 16.1907C27.736 16.8755 27.9915 17.6459 27.9915 18.5019C28.0483 19.358 27.8212 20.214 27.3103 21.07C26.8561 21.869 26.1181 22.5538 25.0963 23.1245C23.45 23.9805 22.0023 24.2088 20.7534 23.8093C19.5045 23.3528 18.6246 22.668 18.1137 21.7549C17.8298 21.2983 17.6027 20.6706 17.4324 19.8716C17.3189 19.0726 17.2621 18.2451 17.2621 17.3891C17.3189 16.476 17.4324 15.5914 17.6027 14.7354C17.773 13.8794 18.0285 13.166 18.3691 12.5953C18.653 12.1958 18.9936 11.7678 19.391 11.3113C19.7316 10.9118 20.129 10.5123 20.5831 10.1128C21.094 9.71336 21.6617 9.34241 22.2862 9L25.2666 9.17121C24.8692 9.62776 24.5002 10.0558 24.1596 10.4553C23.8757 10.7977 23.6203 11.1115 23.3932 11.3969C23.1661 11.6822 22.939 11.939 22.712 12.1673C22.3146 12.5668 22.0023 12.9663 21.7753 13.3658C21.5482 13.7082 21.3495 14.0791 21.1792 14.4786C21.0657 14.8781 21.0657 15.2776 21.1792 15.677C21.9172 14.8781 22.7687 14.4786 23.7338 14.4786C24.188 14.4786 24.6705 14.5357 25.1814 14.6498ZM13.4302 15.0778C14.225 15.5344 14.7927 16.1621 15.1333 16.9611C15.5307 17.703 15.6726 18.5019 15.5591 19.358C15.4455 20.214 15.0765 21.013 14.4521 21.7549C13.8844 22.4968 13.0328 23.0674 11.8974 23.4669C10.1376 24.0376 8.68999 24.0091 7.55461 23.3813C6.41923 22.6965 5.65284 21.869 5.25546 20.8988C5.08515 20.3852 5 19.7289 5 18.93C5 18.131 5.08515 17.3035 5.25546 16.4475C5.42577 15.5914 5.65284 14.7639 5.93669 13.965C6.22054 13.166 6.58953 12.5097 7.04369 11.9961C7.3843 11.5966 7.78169 11.2257 8.23584 10.8833C8.63322 10.5979 9.08738 10.284 9.5983 9.94163C10.166 9.59922 10.7904 9.28534 11.4717 9L14.4521 9.77043C13.9979 10.1699 13.5721 10.5123 13.1748 10.7977C12.8341 11.083 12.5219 11.3398 12.2381 11.5681C11.9542 11.7964 11.6704 12.0246 11.3865 12.2529C10.9891 12.5953 10.6485 12.9377 10.3647 13.2802C10.0808 13.5655 9.82537 13.9079 9.5983 14.3074C9.37122 14.6498 9.28607 15.0208 9.34284 15.4202C9.79699 15.0778 10.2511 14.8781 10.7053 14.821C11.2162 14.7069 11.6704 14.6783 12.0678 14.7354C12.5219 14.7925 12.9761 14.9066 13.4302 15.0778Z"
              fill="#F5F5F5"
            />
          </svg>
