 <svg
            width="32"
            height="32"
            viewBox="0 0 32 32"
            fill="none"
            xmlns="http://www.w3.org/2000/svg"
          >
            <rect
              x="3.92676"
              y="10.8052"
              width="12"
              height="2"
              rx="1"
              fill="#F5F5F5"
            />
            <path
              fill-rule="evenodd"
              clip-rule="evenodd"
              d="M21.4321 18.0118C21.0641 17.6001 20.4319 17.5646 20.0201 17.9326C19.6084 18.3007 19.5729 18.9328 19.9409 19.3446L21.9634 21.6074L19.9411 23.87C19.5731 24.2818 19.6086 24.9139 20.0203 25.282C20.4321 25.65 21.0643 25.6145 21.4323 25.2028L23.3046 23.108L25.1768 25.2028C25.5448 25.6145 26.177 25.65 26.5888 25.282C27.0005 24.9139 27.036 24.2818 26.668 23.87L24.6458 21.6074L26.6682 19.3446C27.0362 18.9328 27.0008 18.3007 26.589 17.9326C26.1772 17.5646 25.545 17.6001 25.177 18.0118L23.3046 20.1068L21.4321 18.0118Z"
              fill="#F5F5F5"
            />
            <path
              fill-rule="evenodd"
              clip-rule="evenodd"
              d="M22.6549 10.9063L20.9614 9.01155C20.5934 8.59977 19.9612 8.56431 19.5494 8.93235C19.1377 9.30039 19.1022 9.93256 19.4702 10.3443L21.8777 13.0379C22.0827 13.2673 22.3696 13.3799 22.6548 13.3711C22.94 13.38 23.2271 13.2674 23.4321 13.0379L27.8189 8.12978C28.1869 7.718 28.1515 7.08583 27.7397 6.71779C27.3279 6.34975 26.6957 6.38521 26.3277 6.79699L22.6549 10.9063Z"
              fill="#F5F5F5"
            />
            <rect
              x="3.92676"
              y="20.8052"
              width="12"
              height="2"
              rx="1"
              fill="#F5F5F5"
            />
          </svg>
